<?xml version="1.0" encoding="utf-8"?>
<!-- Generator: Adobe Illustrator 17.1.0, SVG Export Plug-In . SVG Version: 6.00 Build 0)  -->
<!DOCTYPE svg PUBLIC "-//W3C//DTD SVG 1.1//EN" "http://www.w3.org/Graphics/SVG/1.1/DTD/svg11.dtd">
<svg version="1.1" id="Layer_1" xmlns="http://www.w3.org/2000/svg" xmlns:xlink="http://www.w3.org/1999/xlink" x="0px" y="0px"
	 viewBox="0 0 72 18" enable-background="new 0 0 72 18" xml:space="preserve">
<g>
	<path stroke="#000000" stroke-width="0.5" stroke-miterlimit="10" d="M1.2,7.3c0,3.5,2.8,6.3,6.3,6.3s6.3-2.8,6.3-6.3S11,1,7.5,1
		C4,1,1.2,3.8,1.2,7.3z M2.1,7.3C2.1,4.4,4.6,2,7.5,2s5.3,2.4,5.3,5.3s-2.4,5.3-5.3,5.3S2.1,10.2,2.1,7.3z"/>
	<path stroke="#000000" stroke-width="0.5" stroke-miterlimit="10" d="M12.5,12.3c-0.2,0.2-0.2,0.5,0,0.7l3.9,3.9
		c0.1,0.1,0.2,0.1,0.3,0.1s0.2,0,0.3-0.2c0.2-0.2,0.2-0.5,0-0.7l-3.9-3.9C13,12.1,12.7,12.1,12.5,12.3z"/>
</g>
<path d="M69.7,13.3c-0.7-1.1-2.6-1.6-3-1.6c-0.7,0-0.4,0.2-1.9,1.1c-0.6,0.4-1.3,0.4-1.7,0.4l0,0c0,0,0,0-0.1,0c-0.1,0-0.1,0-0.1,0
	l0,0c-0.4,0-1.1-0.1-1.7-0.4c-1.5-0.9-1.2-1.2-1.9-1.2c-0.4,0-2.2,0.6-3,1.6c-1.1,1.6-1.3,2.7-1.3,2.7h16
	C70.9,16,70.8,14.9,69.7,13.3z"/>
<ellipse transform="matrix(8.497097e-002 0.9964 -0.9964 8.497097e-002 63.5377 -56.7599)" cx="62.7" cy="6.2" rx="4.4" ry="4"/>
<path fill="none" stroke="#000000" stroke-width="1.5" stroke-miterlimit="10" d="M30.9,2.4c-1.7,0-3.1,1-3.8,2.3
	c-0.7-1.4-2.1-2.3-3.8-2.3c-2.3,0-4.2,1.9-4.2,4.2c0,5.6,7.9,8.6,7.9,8.6s8.1-3.1,8.1-8.6C35.1,4.2,33.2,2.4,30.9,2.4L30.9,2.4z"/>
<path stroke="#000000" stroke-width="0.5" stroke-miterlimit="10" d="M36.6,1v0.7H38l2.5,11.9c-0.5,0.2-0.8,0.7-0.8,1.3
	c0,0.8,0.6,1.4,1.4,1.4c0.7,0,1.2-0.5,1.4-1.1h5.1c0.2,0.6,0.7,1.1,1.4,1.1c0.8,0,1.4-0.6,1.4-1.4c0-0.8-0.6-1.4-1.4-1.4
	c-0.7,0-1.2,0.5-1.4,1.1h-5.1c-0.2-0.6-0.7-1-1.3-1.1l-0.3-1.3h9.8L53.4,4H39.2L38.6,1C38.6,1,36.6,1,36.6,1z M48.3,14.9
	c0-0.4,0.3-0.7,0.7-0.7s0.7,0.3,0.7,0.7c0,0.4-0.3,0.7-0.7,0.7C48.6,15.6,48.3,15.3,48.3,14.9z M50.9,9.2h-1V7.5h1.6L50.9,9.2z
	 M49.2,9.2H46V7.5h3.2V9.2z M42,6.8v-2h3.2v2H42z M45.2,7.5v1.7H42V7.5H45.2z M46,4.8h3.2v2H46V4.8z M49.2,9.9v1.6H46V9.9
	C46,9.9,49.2,9.9,49.2,9.9z M45.2,11.5H42V9.9h3.2V11.5z M41.3,11.5h-0.5l-0.3-1.6h0.8V11.5z M40.4,9.2L40,7.5h1.3v1.7H40.4z
	 M39.5,4.8h1.8v2h-1.4L39.5,4.8z M52.4,4.8l-0.7,2h-1.9v-2H52.4z M50.2,11.5h-0.3V9.9h0.8L50.2,11.5z M40.4,14.9
	c0-0.4,0.3-0.7,0.7-0.7c0.4,0,0.7,0.3,0.7,0.7c0,0.4-0.3,0.7-0.7,0.7C40.7,15.6,40.4,15.3,40.4,14.9z"/>
</svg>
